# xmcd CD database file
#
# Track frame offsets:
#	150
#	11040
#	24325
#	37908
#	49052
#	63614
#	77040
#	92264
#	103852
#	119026
#	135679
#	145267
#	157248
#	170586
#	189411
#
# Disc length: 2729 seconds
#
# Revision: 1
# Processed by: cddbd v1.5.2PL0 Copyright (c) Steve Scherf et al.
# Submitted via: CDex 1.70beta2
#
DISCID=cc0aa70f
DTITLE=The Rat Pack - The Rat Pack - The Ultimate Collection CD 4
DYEAR=2006
DGENRE=Jazz
TTITLE0=Dean Martin - Kiss
TTITLE1=Frank Sinatra with - Begine the Beguine
TTITLE2=Sammy Davis Jr. - Six Bridges to Cross
TTITLE3=Dean Martin - Be Honest With Me
TTITLE4=Dean Martin - I'm Gonna Paper All My Walls with Your Love Letters
TTITLE5=Sammy Davis Jr. - Spoken For
TTITLE6=Sammy Davis Jr. - Frankie and Johnnie
TTITLE7=Dean Martin - Pretty as a Picture
TTITLE8=Frank Sinatra - Someone to Watch Over Me
TTITLE9=Frank Sinatra - Night and Day
TTITLE10=Dean Martin - You and Your Beautiful Eyes
TTITLE11=Frank Sinatra - The Sunshine of Your Smile
TTITLE12=Frank Sinatra - I get a Kick Out of You
TTITLE13=Sammy Davis Jr. - Stan' Up and Fight
TTITLE14=Frank Sinatra - There's No Business Like Show Business
EXTD=YEAR: 2006
EXTT0=
EXTT1=
EXTT2=
EXTT3=
EXTT4=
EXTT5=
EXTT6=
EXTT7=
EXTT8=
EXTT9=
EXTT10=
EXTT11=
EXTT12=
EXTT13=
EXTT14=
PLAYORDER=
